PathFileType	4	(X/Y/Z)	pose_F01_0-96.trc
DataRate	CameraRate	NumFrames	NumMarkers	Units	OrigDataRate	OrigDataStartFrame	OrigNumFrames
30	30	5	21	m	30	48	96
Frame#	Time	CHip			RHip			RKnee			RAnkle			RBigToe			RSmallToe			RHeel			LHip			LKnee			LAnkle			LBigToe			LSmallToe			LHeel			Neck			Nose			RShoulder			RElbow			RWrist			LShoulder			LElbow			LWrist			
		X1	Y1	Z1	X2	Y2	Z2	X3	Y3	Z3	X4	Y4	Z4	X5	Y5	Z5	X6	Y6	Z6	X7	Y7	Z7	X8	Y8	Z8	X9	Y9	Z9	X10	Y10	Z10	X11	Y11	Z11	X12	Y12	Z12	X13	Y13	Z13	X14	Y14	Z14	X15	Y15	Z15	X16	Y16	Z16	X17	Y17	Z17	X18	Y18	Z18	X19	Y19	Z19	X20	Y20	Z20	X21	Y21	Z21	
48	1.6	-0.15342330455253192	1.8582833419425817	-0.4969351590523379	-0.16490471211275476	1.855863276800481	-0.4429094936664337	-0.18178011810318517	1.7183908877982599	-0.4044922710806555	-0.16512376205718246	1.6028045328565708	-0.3717382295368688							-0.13009954015650937	1.5953951986325476	-0.35112176656353816	-0.14328876182011702	1.860594299753268	-0.5689055625682233	-0.17687079429631963	1.7250510539813284	-0.5889239925964828	-0.14489673328319366	1.5818255287768597	-0.6056115421993095	-0.1820751595734386	1.5431461235425936	-0.6300145375378502	-0.1654694583172544	1.554165620767612	-0.6477731333266362	-0.13186730933467125	1.5714729691283498	-0.5964646670813176	-0.17049632596335634	2.0238780066771556	-0.5118604203427218	-0.21472799995430633	2.068463937378604	-0.5270661422790205	-0.18046747925680046	2.0170042814649207	-0.42821418390779414	-0.22742957925093882	1.959051922818711	-0.3708157503616619	-0.2416226022269648	2.0255864560780585	-0.404913125640344	-0.1573988849027362	2.0298189195389518	-0.5997711048839403	-0.1765383621677381	1.9672745754879521	-0.6635054949055037	-0.22670372431421743	2.021409957549129	-0.6747190807624355
49	1.6333333333333333	-0.15521932487183165	1.8644541783655797	-0.49525715273099846	-0.16492748784204045	1.8610553110758215	-0.4347891012526727	-0.17855149421391348	1.71989617587845	-0.4035829790371725	-0.16512376205718246	1.6028045328565708	-0.3717382295368688							-0.13009954015650937	1.5953951986325476	-0.35112176656353816	-0.14179126349953453	1.8677589946920752	-0.5546214105902237	-0.1703228339112321	1.7328164419634648	-0.5755168399495839	-0.1453939734955291	1.5819918244612816	-0.604759609333412	-0.1864227820131299	1.54283318439163	-0.6254695439353388	-0.2999178553970016	1.4912020293551036	-1.126522369698296	-0.13033283332019643	1.5691888941518048	-0.5975370234247465	-0.1704321192790904	2.027466951858128	-0.5034117502116477	-0.2137024032479162	2.070761687876047	-0.5244283361240819	-0.18017294156377364	2.0199654152464475	-0.4194786838295344	-0.22691423145319228	1.9639856391197732	-0.35452891015082166	-0.2353811543283187	2.030635854540669	-0.3921396504680801	-0.15605435999029335	2.0324917600995906	-0.5858030139889974	-0.17669604113337112	1.9702486412315239	-0.655271015493257	-0.21974340961468897	2.017282497050984	-0.6792103256962626
50	1.6666666666666667	-0.1553617604068926	1.8668132913196267	-0.4866897331207072	-0.1629042716430635	1.8648480962283394	-0.4198579317454817	-0.17204284099085781	1.7290951733558286	-0.38946354489221174	-0.16512376205718246	1.6028045328565708	-0.3717382295368688							-0.13009954015650937	1.5953951986325476	-0.35112176656353816	-0.1437501543497966	1.8691131991564207	-0.5436510431247048	-0.16168134948341045	1.735267821835886	-0.5762732741560074	-0.14432312615780496	1.5898588241796072	-0.607342635206553	-0.1819841602505077	1.5456403061357493	-0.6303425086368244	-0.16760850938740382	1.5569799657276069	-0.6459931159207213	-0.1349145007579689	1.575673733292721	-0.5941866654043664	-0.16856162160921268	2.0283050053133405	-0.49693895019624085	-0.21470000804219144	2.0706603739381015	-0.5191077862022763	-0.17701238096714014	2.02317021987115	-0.409981036813662	-0.22236928702372644	1.9691273053853264	-0.3379123252366391	-0.22913970642967257	2.03568525300328	-0.3793661752958162	-0.15518150638983974	2.0347407107986526	-0.5829075674693998	-0.17525233891594802	1.9775069043778029	-0.6525116445657779	-0.21751891248227645	2.035344452212544	-0.6759733483468952
51	1.7	-0.15512123143141907	1.872699784661259	-0.469790134909774	-0.16543904946797866	1.8691530501209725	-0.4127115242733507	-0.16888476351137185	1.7308755192823666	-0.3883503703801517	-0.16512376205718246	1.6028045328565708	-0.3717382295368688							-0.13009954015650937	1.5953951986325476	-0.35112176656353816	-0.14649061267757899	1.8753082384234228	-0.5364777883336785	-0.15935465139516344	1.740917294136573	-0.5707647764753639	-0.14461491745894345	1.5886419998504162	-0.6067366433261742	-0.1841002270566185	1.5455890072404292	-0.628227875608847	-0.16767600422956824	1.557104836936082	-0.6460293702994898	-0.13408313379055073	1.574171094233164	-0.5944553923604265	-0.1686671727424138	2.030310070162446	-0.48870849769359087	-0.21204498389622078	2.0700698824895323	-0.5019765142035099	-0.17705783784411316	2.023895169577999	-0.40189788094232415	-0.21782434259426056	1.9742689716508797	-0.32129574032245656	-0.22289825853102643	2.0407346514658906	-0.3665927001235522	-0.15748283054043716	2.035627088341304	-0.5726185115332114	-0.17026184950506626	1.9742038058344331	-0.6542648006639172	-0.20619466902663397	2.040205017385397	-0.6768624233789847
52	1.7333333333333334	-0.15439110921974103	1.8752492746710654	-0.46693121646086033	-0.16275733210278723	1.8708480142536563	-0.4118503701243418	-0.1660866889356968	1.7340735343741662	-0.38759069903577476	-0.16512376205718246	1.6028045328565708	-0.3717382295368688							-0.13009954015650937	1.5953951986325476	-0.35112176656353816	-0.14585925793962923	1.8785100317778376	-0.5337372013855276	-0.15062039163138585	1.7407866108439434	-0.5589213240675254	-0.1466488806177987	1.5884332361267555	-0.6045633231073403	-0.18195821251530322	1.545590468995409	-0.6303133108930533	-0.16532828823692694	1.5565632335054211	-0.6482436727152856	-0.13861511636581508	1.5759485889559597	-0.5943251814227976	-0.16780369264139203	2.0324441711165786	-0.4865668974425327	-0.2090210991205725	2.0712783069669807	-0.5010894114277519	-0.17525058872449711	2.028739832424465	-0.40572186190338594	-2.227944917457969	1.919194507393907	2.1039129023170613	-0.21665681063238032	2.0457840499285016	-0.3538192249512883	-0.15657094336631305	2.035751625936482	-0.5694303063815387	-0.16888112684935216	1.984704041665847	-0.6614554908741441	-0.1948704255709915	2.0450655825582493	-0.6777514984110743
